<?xml version="1.0" standalone="no"?>
<!DOCTYPE svg PUBLIC "-//W3C//DTD SVG 20010904//EN"
 "http://www.w3.org/TR/2001/REC-SVG-20010904/DTD/svg10.dtd">
<svg version="1.0" xmlns="http://www.w3.org/2000/svg"
 width="300.000000pt" height="300.000000pt" viewBox="0 0 300.000000 300.000000"
 preserveAspectRatio="xMidYMid meet">
<metadata>
Created by potrace 1.11, written by Peter Selinger 2001-2013
</metadata>
<g transform="translate(0.000000,300.000000) scale(0.100000,-0.100000)"
fill="#000000" stroke="none">
<path d="M1700 2732 c-8 -3 -18 -10 -22 -16 -6 -8 -8 -8 -8 0 0 21 -44 9 -57
-16 -10 -21 -13 -22 -19 -7 -6 18 -60 21 -70 5 -3 -5 -13 -4 -23 1 -23 13 -46
9 -69 -12 -29 -27 -78 -37 -113 -25 -16 5 -39 8 -49 5 -11 -3 -26 0 -33 7 -16
17 -53 36 -67 36 -6 0 -16 -14 -22 -30 -6 -20 -22 -35 -42 -44 -21 -9 -32 -21
-33 -36 -3 -37 -26 -52 -84 -55 -30 -1 -62 -6 -71 -10 -12 -5 -18 -3 -18 6 0
7 -3 9 -7 6 -3 -4 -21 2 -38 13 l-33 20 -63 -31 c-71 -35 -79 -43 -72 -70 4
-14 0 -19 -16 -19 -11 0 -21 5 -21 11 0 5 -4 8 -9 4 -6 -3 -15 4 -21 15 -9 16
-15 18 -30 10 -11 -6 -20 -17 -20 -24 0 -9 -7 -12 -20 -9 -26 7 -49 -13 -43
-37 3 -10 0 -27 -6 -37 -6 -10 -11 -13 -11 -6 0 7 -13 10 -31 9 -33 -2 -59
-28 -59 -57 0 -13 -9 -16 -47 -14 -62 3 -77 -6 -97 -55 -10 -25 -22 -40 -33
-40 -13 0 -14 -3 -5 -12 7 -7 12 -17 12 -22 0 -6 -5 -4 -10 4 -6 10 -10 11
-10 3 0 -7 11 -20 24 -29 16 -10 32 -37 45 -77 15 -47 188 -724 206 -807 2 -8
36 -143 75 -300 40 -157 73 -291 73 -297 0 -7 3 -13 7 -13 3 0 6 -8 6 -17 1
-34 68 -268 78 -275 24 -16 200 -69 212 -64 8 3 14 2 14 -3 0 -5 19 -11 43
-15 23 -3 58 -9 77 -13 19 -3 50 -7 68 -7 17 -1 32 -5 32 -10 0 -4 9 -6 20 -3
11 3 23 1 26 -5 4 -6 10 -5 15 3 5 8 9 9 9 4 0 -6 10 -12 23 -13 57 -6 393 -9
402 -4 5 4 36 5 67 4 31 -1 59 2 62 7 3 4 18 6 32 3 16 -3 25 -1 21 5 -4 5 7
8 25 5 24 -4 29 -2 23 9 -6 11 -5 11 4 3 12 -11 61 -7 61 5 0 3 17 7 37 8 21
1 39 6 41 12 2 5 9 8 16 5 12 -5 124 34 176 61 20 10 31 27 40 62 7 26 26 94
42 151 16 56 26 108 22 114 -5 7 -3 8 6 3 10 -6 12 -3 8 13 -3 12 -2 22 3 24
5 2 10 15 11 31 1 15 6 27 11 27 5 0 7 7 4 15 -4 8 -2 17 4 21 6 3 8 12 5 19
-2 7 1 18 7 24 6 6 7 11 3 11 -5 0 -3 7 4 15 7 8 10 22 6 30 -3 8 -1 15 5 15
6 0 8 4 4 9 -3 5 -1 12 5 16 6 4 8 10 5 15 -3 5 -1 11 5 15 6 4 8 10 5 15 -3
5 -1 17 4 27 10 17 89 285 97 328 1 6 3 15 4 20 2 6 4 15 5 20 2 6 4 13 5 18
1 4 4 12 5 17 1 6 3 11 5 13 4 5 22 88 23 105 0 6 4 12 8 12 4 0 10 7 13 16 4
9 2 13 -5 8 -8 -4 -7 0 0 15 7 11 9 21 6 21 -3 0 3 12 12 27 14 21 15 25 3 18
-12 -7 -13 -6 -3 6 7 9 14 24 16 35 1 10 7 25 11 33 7 10 6 12 -4 6 -9 -6 -8
-1 3 14 8 13 13 30 10 37 -3 8 1 14 8 14 7 0 10 3 6 6 -3 4 0 23 8 43 12 32
31 98 65 228 7 28 17 44 31 48 13 4 18 12 15 21 -3 8 -2 12 4 9 5 -3 8 4 7 15
-1 11 -6 20 -12 20 -12 0 -29 22 -48 60 -10 20 -20 25 -52 26 -64 1 -75 3 -75
17 0 27 -27 49 -66 53 -56 6 -61 9 -69 44 -7 33 -20 42 -64 46 -14 1 -30 2
-34 3 -5 1 -5 6 -2 11 9 15 -19 12 -41 -5 -26 -19 -32 -19 -39 5 -4 11 -9 18
-13 16 -10 -6 -27 16 -27 34 0 16 -42 19 -84 6 -18 -6 -22 -5 -15 5 4 7 -7 5
-26 -7 l-33 -19 -28 24 c-22 19 -26 28 -18 43 7 14 6 20 -5 24 -8 3 -13 11
-10 19 9 23 -28 27 -51 5 -18 -17 -23 -18 -28 -6 -4 11 -14 12 -40 6 -19 -4
-40 -11 -47 -15 -9 -5 -11 -4 -6 4 8 13 -22 67 -31 57 -4 -3 -12 -1 -19 4 -6
6 -22 13 -35 15 -12 3 -25 8 -28 13 -9 13 -34 20 -51 14z"/>
</g>
</svg>
